# AST/ASF file generated using VICON BodyLanguage
# -----------------------------------------------
:version 1.10
:name VICON
:units
  mass 1.0
  length 0.45
  angle deg
:documentation
   .ast/.asf automatically generated from VICON data using
   VICON BodyBuilder and BodyLanguage model FoxedUp or BRILLIANT.MOD
:root
   order TX TY TZ RX RY RZ
   axis XYZ
   position 0 0 0  
   orientation 0 0 0 
:bonedata
  begin
     id 1 
     name lhipjoint
     direction 0.662698 -0.695252 0.27831 
     length 2.53073 
     axis 0 0 0  XYZ
  end
  begin
     id 2 
     name lfemur
     direction 0.34202 -0.939693 0  
     length 7.16147  
     axis 0 0 20  XYZ
    dof rx ry rz
    limits (-160.0 20.0)
           (-70.0 70.0)
           (-60.0 70.0)
  end
  begin
     id 3 
     name ltibia
     direction 0.34202 -0.939693 0   
     length 7.63967   
     axis 0 0 20   XYZ
    dof rx
    limits (-10.0 170.0)
  end
  begin
     id 4 
     name lfoot
     direction 0.0938457 -0.257721 0.961651   
     length 1.89793   
     axis -90 7.62852e-016 20   XYZ
    dof rx rz
    limits (-45.0 90.0)
           (-70.0 20.0)
  end
  begin
     id 5 
     name ltoes
     direction -0.00116841 -0.0030592 0.999995   
     length 0.955649   
     axis -90 7.62852e-016 20   XYZ
    dof rx
    limits (-90.0 20.0)
  end
  begin
     id 6 
     name rhipjoint
     direction -0.649445 -0.705948 0.282592   
     length 2.49238  
     axis 0 0 0  XYZ 
  end
  begin
     id 7 
     name rfemur
     direction -0.34202 -0.939693 0   
     length 6.90728   
     axis 0 0 -20   XYZ
    dof rx ry rz
    limits (-160.0 20.0)
           (-70.0 70.0)
           (-70.0 60.0)
  end
  begin
     id 8 
     name rtibia
     direction -0.34202 -0.939693 0   
     length 7.72868   
     axis 0 0 -20   XYZ
    dof rx
    limits (-10.0 170.0)
 end
 begin
     id 9 
     name rfoot
     direction -0.0920068 -0.252865 0.963117   
     length 1.97476  
     axis -90 -7.62852e-016 -20   XYZ
    dof rx rz
    limits (-45.0 90.0)
           (-20.0 70.0)
  end
  begin
     id 10 
     name rtoes
     direction 0.000391322 0.00230649 0.999997   
     length 0.992641   
     axis -90 -7.62852e-016 -20   XYZ
    dof rx
    limits (-90.0 20.0)
  end
  begin
     id 11 
     name lowerback
     direction -0.00875327 0.998321 -0.0572635   
     length 2.20024   
     axis 0 0 0   XYZ
    dof rx ry rz
    limits (-20.0 45.0)
           (-30.0 30.0)
           (-30.0 30.0)
  end
  begin
     id 12 
     name upperback
     direction 0.00753931 0.999972 -0.000360425   
     length 2.20538   
     axis 0 0 0   XYZ
    dof rx ry rz
    limits (-20.0 45.0)
           (-30.0 30.0)
           (-30.0 30.0)
  end
  begin
     id 13 
     name thorax
     direction 0.0117767 0.999601 0.0256663   
     length 2.21508   
     axis 0 0 0   XYZ
    dof rx ry rz
    limits (-20.0 45.0)
           (-30.0 30.0)
           (-30.0 30.0)
  end
  begin
     id 14 
     name lowerneck
     direction 0.060228 0.994909 0.0807986   
     length 1.7607   
     axis 0 0 0   XYZ
    dof rx ry rz
    limits (-20.0 45.0)
           (-30.0 30.0)
           (-30.0 30.0)
  end
  begin
     id 15 
     name upperneck
     direction -0.0563647 0.959594 -0.275685   
     length 1.75612   
     axis 0 0 0   XYZ
    dof rx ry rz
    limits (-20.0 45.0)
           (-30.0 30.0)
           (-30.0 30.0)
  end
  begin
     id 16
     name head
     direction -0.0161544 0.99458 -0.102714  
     length 1.79288  
     axis 0 0 0   XYZ
    dof rx ry rz
    limits (-20.0 45.0)
           (-30.0 30.0)
           (-30.0 30.0)
  end
  begin
     id 17 
     name lclavicle
     direction 0.93913 0.332189 -0.087669  
     length 3.52087  
     axis 0 0 0   XYZ
    dof ry rz
    limits (-20.0 10.0)
           (0.0 20.0)
  end
  begin
     id 18 
     name lhumerus
     direction 1 -4.48974e-011 -2.70836e-027   
     length 5.35289   
     axis -180 -30 -90   XYZ
    dof rx ry rz
    limits (-60.0 90.0)
           (-90.0 90.0)
           (-90.0 90.0)
  end
  begin
     id 19
     name lradius
     direction 1 -4.48961e-011 -9.76021e-027   
     length 3.27727   
     axis -180 -30 -90   XYZ
    dof rx
    limits (-10.0 170.0)
  end
  begin
     id 20
     name lwrist
     direction 1 -4.49103e-011 -2.23668e-026   
     length 1.63864   
     axis 1.44924e-014 90 90   XYZ
    dof ry
    limits (-180.0 0.0)
 end
  begin
     id 21 
     name lhand
     direction 1 3.0697e-005 0.000161777   
     length 0.54443   
     axis 2.85318e-014 90 90   XYZ
    dof rx rz
    limits (-90.0 90.0)
           (-45.0 45.0)
  end
  begin
     id 22 
     name lfingers
     direction 1 -4.49027e-011 -8.9447e-026   
     length 0.438912   
     axis 5.70628e-014 90 90   XYZ
    dof rx
    limits (0.0 90.0)
  end
  begin
     id 23
     name lthumb
     direction 0.707058 2.6516e-005 0.707156   
     length 0.630274   
     axis -90 45 -3.53137e-014   XYZ
    dof rx rz
    limits (-45.0 45.0)
           (-45.0 45.0)
  end
  begin
     id 24 
     name rclavicle
     direction -0.95274 0.284984 -0.105215   
     length 3.43401  
     axis 0 0 0   XYZ 
    dof ry rz
    limits (-10.0 20.0)
           (-20.0 0.0)
  end
  begin
     id 25 
     name rhumerus
     direction -0.999999 -0.000575019 -0.00106829  
     length 5.52077   
     axis -180 30 90   XYZ
    dof rx ry rz
    limits (-90.0 60.0)
           (-90.0 90.0)
           (-90.0 90.0)
  end
  begin
     id 26 
     name rradius
     direction -1 -4.4879e-011 -6.35415e-027   
     length 3.32364   
     axis -180 30 90   XYZ
    dof rx
    limits (-10.0 170.0)
  end
  begin
     id 27 
     name rwrist
     direction -1 -4.49048e-011 -9.98542e-027   
     length 1.66182   
     axis 6.32482e-015 -90 -90   XYZ
    dof ry
    limits (-180.0 0.0)
  end
  begin
     id 28
     name rhand
     direction -1 -4.48978e-011 -1.99771e-026   
     length 0.732235   
     axis 1.27479e-014 -90 -90   XYZ
    dof rx rz
    limits (-90.0 90.0)
           (-45.0 45.0)
  end
  begin
     id 29
     name rfingers
     direction -1 -4.49144e-011 -3.99245e-026   
     length 0.590347   
     axis 2.5496e-014 -90 -90   XYZ
    dof rx
    limits (0.0 90.0)
  end
  begin
     id 30
     name rthumb
     direction -0.707107 -6.35121e-011 0.707107   
     length 0.847624   
     axis -90 -45 -2.82974e-014   XYZ
    dof rx rz
    limits (-45.0 45.0)
           (-45.0 45.0)
  end
:hierarchy
  begin
    root lhipjoint rhipjoint lowerback
    lhipjoint lfemur
    lfemur ltibia
    ltibia lfoot
    lfoot ltoes
    rhipjoint rfemur
    rfemur rtibia
    rtibia rfoot
    rfoot rtoes
    lowerback upperback
    upperback thorax
    thorax lowerneck lclavicle rclavicle
    lowerneck upperneck
    upperneck head
    lclavicle lhumerus
    lhumerus lradius
    lradius lwrist
    lwrist lhand lthumb
    lhand lfingers
    rclavicle rhumerus
    rhumerus rradius
    rradius rwrist
    rwrist rhand rthumb
    rhand rfingers
  end

#!OML:ASF G:\Work\Work\Patient Classification 1\Elijah\terrain1\Elijah.ASF
:FULLY-SPECIFIED
:DEGREES
233
root 15.2365 19.6008 9.54075 7.0803 2.41264 -3.50832
lowerback 9.41367 0.940379 4.46669
upperback 1.2782 1.6584 -1.07631
thorax -3.78808 0.753714 -3.84366
lowerneck -20.3165 9.67681 8.85408
upperneck 13.1039 13.4629 -14.4709
head 9.10315 5.41068 -4.39732
rclavicle -1.90833e-014 -8.74653e-015
rhumerus -45.8109 10.8035 -93.0682
rradius 74.5524
rwrist -9.66612
rhand -14.3293 20.2283
rfingers 7.12502
rthumb 11.8115 -9.41866
lclavicle -1.90833e-014 -8.74653e-015
lhumerus -40.8217 8.97317 78.6928
lradius 31.528
lwrist 1.64699
lhand -17.0714 26.4655
lfingers 7.12502
lthumb 9.16646 56.2463
rfemur -12.0411 6.10757 29.8814
rtibia 28.5623
rfoot 11.0184 -19.1554
rtoes -20.2344
lfemur -70.8706 4.63042 -17.9924
ltibia 99.0461
lfoot -4.73899 -21.3428
ltoes -9.57367
234
root 15.2375 19.6113 9.64446 7.11757 2.14456 -3.5737
lowerback 9.65181 1.04607 4.41927
upperback 1.09995 1.8077 -1.07328
thorax -4.09403 0.816349 -3.84291
lowerneck -21.1918 9.62862 8.96545
upperneck 14.1206 13.5169 -14.7658
head 9.6501 5.33259 -4.49303
rclavicle 2.83268e-014 5.96354e-015
rhumerus -46.0511 10.8679 -93.1219
rradius 74.3585
rwrist -9.77572
rhand -14.2051 20.1528
rfingers 7.12502
rthumb 11.9313 -9.48721
lclavicle 2.83268e-014 5.96354e-015
lhumerus -41.0642 9.39524 78.4462
lradius 31.315
lwrist 1.14009
lhand -16.8264 26.2308
lfingers 7.12502
lthumb 9.40289 56.0011
rfemur -11.3868 6.26627 29.979
rtibia 28.0266
rfoot 11.0184 -19.1554
rtoes -20.2344
lfemur -71.0582 4.48135 -17.88
ltibia 96.2971
lfoot -4.9496 -21.654
ltoes -9.61756
235
root 15.2435 19.6166 9.74735 7.23621 1.77424 -3.55388
lowerback 9.49706 1.1997 4.39109
upperback 1.15151 1.99703 -1.16079
thorax -3.93306 0.915538 -3.93535
lowerneck -21.0135 9.33491 9.56984
upperneck 13.8559 13.0923 -15.6262
head 9.59206 5.10215 -4.9736
rclavicle -1.12313e-014 -1.98785e-014
rhumerus -45.8873 10.8666 -93.1539
rradius 74.1718
rwrist -9.78277
rhand -14.2226 20.134
rfingers 7.12502
rthumb 11.9145 -9.50696
lclavicle -1.12313e-014 -1.98785e-014
lhumerus -40.9943 9.49937 78.3683
lradius 31.3375
lwrist 1.08572
lhand -16.3871 26.454
lfingers 7.12502
lthumb 9.8267 56.2047
rfemur -10.8129 6.36653 29.941
rtibia 27.4372
rfoot 11.0184 -19.1554
rtoes -20.2344
lfemur -71.2275 4.39807 -17.8616
ltibia 93.4071
lfoot -4.73428 -22.0894
ltoes -8.67327
236
root 15.2571 19.6264 9.85131 7.46815 1.76311 -3.55146
lowerback 9.54013 1.17559 4.4799
upperback 0.974754 1.97671 -1.2198
thorax -4.13887 0.894399 -4.05059
lowerneck -21.0504 9.42513 9.36865
upperneck 13.9817 13.2213 -15.3002
head 9.61576 5.17652 -4.80261
rclavicle 3.57812e-015 1.19271e-015
rhumerus -46.0384 10.9172 -93.2542
rradius 74.1921
rwrist -9.83022
rhand -14.1484 19.6375
rfingers 7.12502
rthumb 11.986 -9.99935
lclavicle 3.57812e-015 1.19271e-015
lhumerus -41.2111 9.69852 78.1687
lradius 31.1938
lwrist 0.943176
lhand -16.346 26.3933
lfingers 7.12502
lthumb 9.86636 56.1421
rfemur -10.3798 6.07451 29.8959
rtibia 26.8307
rfoot 11.0184 -19.1554
rtoes -20.2344
lfemur -71.4452 3.99064 -17.854
ltibia 90.3579
lfoot -4.43201 -22.4592
ltoes -8.28846
237
root 15.2663 19.6522 9.95822 7.44465 1.79053 -3.46848
lowerback 10.0055 1.1011 4.34803
upperback 0.710415 1.88871 -1.21112
thorax -4.68952 0.832254 -3.97816
lowerneck -20.4849 9.74685 9.2107
upperneck 13.7549 13.6243 -14.8503
head 9.43706 5.4345 -4.55776
rclavicle 7.35503e-015 -1.59028e-015
rhumerus -46.3926 11.1534 -93.3486
rradius 74.0493
rwrist -9.88659
rhand -13.7357 18.8681
rfingers 7.12502
rthumb 12.3839 -10.7451
lclavicle 7.35503e-015 -1.59028e-015
lhumerus -41.6796 10.1669 77.8498
lradius 30.8485
lwrist 0.580771
lhand -16.6749 25.9301
lfingers 7.12502
lthumb 9.54906 55.6937
rfemur -9.66625 5.84447 29.8142
rtibia 26.1771
rfoot 11.0184 -19.1554
rtoes -20.2344
lfemur -71.105 3.56368 -17.8535
ltibia 87.1978
lfoot -4.31095 -22.8004
ltoes -7.77969
238
root 15.2678 19.673 10.056 7.28196 1.65053 -3.51392
lowerback 9.76722 1.18213 4.45592
upperback 1.1109 1.98637 -1.30838
thorax -4.11968 0.902059 -4.13617
lowerneck -21.9334 9.78723 8.05939
upperneck 14.7679 13.8372 -13.7926
head 9.89121 5.46943 -3.93395
rclavicle 3.77691e-015 8.74653e-015
rhumerus -45.7979 11.0172 -93.3384
rradius 73.8108
rwrist -9.68804
rhand -13.1413 18.117
rfingers 7.12502
rthumb 12.957 -11.4607
lclavicle 3.77691e-015 8.74653e-015
lhumerus -40.9774 10.4901 77.6788
lradius 30.4197
lwrist 0.154465
lhand -17.058 25.2492
lfingers 7.12502
lthumb 9.17935 55.0294
rfemur -8.80508 5.91025 29.9204
rtibia 25.4743
rfoot 11.0184 -19.1554
rtoes -20.2344
lfemur -70.588 3.37322 -17.6437
ltibia 84.077
lfoot -3.9396 -23.1147
ltoes -6.47762
239
root 15.2844 19.6852 10.1794 7.39816 1.70287 -3.68568
lowerback 9.8464 1.172 4.72344
upperback 0.95292 2.01079 -1.25269
thorax -4.31974 0.90084 -4.2388
lowerneck -20.8114 9.42561 9.07896
upperneck 14.0479 13.2512 -14.9299
head 9.54627 5.22057 -4.62641
rclavicle 3.65764e-014 3.18055e-015
rhumerus -46.0768 10.9755 -93.297
rradius 73.7276
rwrist -9.6575
rhand -12.6158 17.899
rfingers 7.12502
rthumb 13.4635 -11.6458
lclavicle 3.65764e-014 3.18055e-015
lhumerus -41.1371 10.9266 77.4906
lradius 30.1496
lwrist -0.30295
lhand -17.1284 24.6869
lfingers 7.12502
lthumb 9.11148 54.4701
rfemur -8.04981 5.16888 30.045
rtibia 24.7203
rfoot 11.0184 -19.1554
rtoes -20.2344
lfemur -70.3359 2.97903 -17.3973
ltibia 81.117
lfoot -3.73616 -23.2334
ltoes -5.67021
240
root 15.3004 19.7002 10.2904 7.60469 1.6122 -3.96062
lowerback 9.33271 1.1377 5.01783
upperback 1.34847 1.96728 -1.15328
thorax -3.61749 0.905397 -4.26815
lowerneck -21.6718 9.89483 8.81753
upperneck 13.9423 13.959 -15.1296
head 9.75526 5.47428 -4.50122
rclavicle 1.80894e-014 -6.36111e-015
rhumerus -45.1741 11.2691 -93.0814
rradius 73.4546
rwrist -9.79093
rhand -12.3544 18.1201
rfingers 7.12502
rthumb 13.7155 -11.4079
lclavicle 1.80894e-014 -6.36111e-015
lhumerus -40.4186 11.7356 77.4596
lradius 29.8858
lwrist -0.362075
lhand -16.9979 24.1645
lfingers 7.12502
lthumb 9.23738 53.9422
rfemur -7.48934 4.53397 30.2504
rtibia 23.9413
rfoot 11.0184 -19.1554
rtoes -20.2344
lfemur -70.1053 2.78719 -17.0497
ltibia 78.2072
lfoot -3.87185 -23.1945
ltoes -6.23564
241
root 15.3086 19.7258 10.3971 7.73291 1.32302 -4.19301
lowerback 8.8264 1.1941 5.18851
upperback 1.80132 2.02449 -1.09437
thorax -2.8532 0.965891 -4.28125
lowerneck -21.3327 10.2737 9.49143
upperneck 12.7043 14.4164 -16.4583
head 9.51074 5.65649 -4.98573
rclavicle 3.18055e-015 -1.07344e-014
rhumerus -44.1837 11.4989 -92.9062
rradius 73.0875
rwrist -9.74686
rhand -12.3663 18.2725
rfingers 7.12502
rthumb 13.704 -11.2562
lclavicle 3.18055e-015 -1.07344e-014
lhumerus -39.7091 12.4028 77.4571
lradius 29.868
lwrist -0.288912
lhand -16.5624 24.2971
lfingers 7.12502
lthumb 9.65761 54.0557
rfemur -6.89424 4.41646 30.4428
rtibia 23.0973
rfoot 11.0184 -19.1554
rtoes -20.2344
lfemur -69.6237 2.76973 -16.6742
ltibia 75.2897
lfoot -4.08484 -22.8659
ltoes -6.16689
242
root 15.3086 19.748 10.5106 7.73351 0.856084 -4.53622
lowerback 9.42448 1.40541 5.35287
upperback 1.22911 2.36831 -1.04569
thorax -3.74029 1.09355 -4.39727
lowerneck -21.5005 9.75489 9.1642
upperneck 13.8118 13.798 -15.7768
head 9.74695 5.36727 -4.8186
rclavicle 2.127e-014 1.19271e-014
rhumerus -45.2322 11.2281 -93.1121
rradius 73.0259
rwrist -9.74784
rhand -12.484 18.3231
rfingers 7.12502
rthumb 13.5906 -11.2133
lclavicle 2.127e-014 1.19271e-014
lhumerus -40.8494 12.1454 77.1799
lradius 30.2762
lwrist -0.00498194
lhand -16.2993 24.924
lfingers 7.12502
lthumb 9.91138 54.6707
rfemur -6.14218 4.72588 30.8125
rtibia 22.2802
rfoot 11.0184 -19.1554
rtoes -20.2344
lfemur -69.0079 2.90972 -16.096
ltibia 72.491
lfoot -4.14481 -22.058
ltoes -4.9045
